<?xml version="1.0" encoding="iso-8859-1"?>
<!-- Generator: Adobe Illustrator 19.0.0, SVG Export Plug-In . SVG Version: 6.00 Build 0)  -->
<svg version="1.1" id="Capa_1" xmlns="http://www.w3.org/2000/svg" xmlns:xlink="http://www.w3.org/1999/xlink" x="0px" y="0px"
	 viewBox="0 0 491.52 491.52" style="enable-background:new 0 0 491.52 491.52;" xml:space="preserve">
<circle style="fill:#EA8953;" cx="245.76" cy="245.76" r="245.76"/>
<path style="fill:#3A556A;" d="M379.721,104.964H111.807c-3.78,0-6.844,3.064-6.844,6.843v40.031h281.6v-40.031
	C386.564,108.028,383.5,104.964,379.721,104.964z"/>
<rect x="115.763" y="120.673" style="fill:#EBF0F3;" width="176.42" height="15.462"/>
<circle style="fill:#FCD462;" cx="314.266" cy="128.41" r="7.731"/>
<circle style="fill:#44C4A1;" cx="341.842" cy="128.41" r="7.731"/>
<circle style="fill:#E56353;" cx="369.408" cy="128.41" r="7.731"/>
<path style="fill:#FFFFFF;" d="M386.556,151.855v227.891c0,3.738-3.073,6.81-6.81,6.81h-267.93c-3.788,0-6.86-3.072-6.86-6.81
	V151.855H386.556z"/>
<g>
	<path style="fill:#64798A;" d="M182.618,231.127v-12.97h11.35v12.97h8.515v10.845h-8.515v17.835h-11.35v-17.835h-30.4v-10.54
		l26.045-42.46h13.07l-25.635,42.155H182.618z"/>
	<path style="fill:#64798A;" d="M219.608,250.636c-4.8-6.655-7.195-15.557-7.195-26.705c0-11.145,2.395-20.047,7.195-26.702
		c4.795-6.652,12.025-9.98,21.685-9.98c9.66,0,16.89,3.327,21.685,9.98c4.8,6.655,7.195,15.558,7.195,26.702
		c0,11.148-2.395,20.05-7.195,26.705c-4.795,6.655-12.025,9.98-21.685,9.98C231.633,260.616,224.403,257.291,219.608,250.636z
		 M228.168,204.779c-2.8,4.865-4.205,11.25-4.205,19.152c0,7.905,1.405,14.29,4.205,19.155c2.805,4.862,7.18,7.295,13.125,7.295
		c5.945,0,10.285-2.415,13.025-7.245c2.735-4.83,4.1-11.233,4.1-19.205c0-7.97-1.365-14.372-4.1-19.203
		c-2.74-4.83-7.08-7.245-13.025-7.245C235.348,197.484,230.973,199.917,228.168,204.779z"/>
	<path style="fill:#64798A;" d="M310.303,231.127v-12.97h11.35v12.97h8.515v10.845h-8.515v17.835h-11.35v-17.835h-30.4v-10.54
		l26.045-42.46h13.07l-25.635,42.155H310.303z"/>
</g>
<g>
	<path style="fill:#E56353;" d="M184.163,291.442c1.56,1.305,2.34,3.315,2.34,6.03c0,2.715-0.795,4.705-2.39,5.965
		c-1.59,1.263-4.035,1.893-7.33,1.893h-3.975v6.575h-3.785v-22.417h7.7C180.123,289.486,182.603,290.139,184.163,291.442z
		 M181.483,300.694c0.76-0.8,1.14-1.977,1.14-3.528c0-1.55-0.48-2.645-1.445-3.288c-0.96-0.64-2.47-0.963-4.52-0.963h-3.85v8.98
		h4.395C179.298,301.896,180.723,301.496,181.483,300.694z"/>
	<path style="fill:#E56353;" d="M203.948,311.904h-3.27v-2.277c-1.41,1.69-3.305,2.535-5.675,2.535c-1.775,0-3.245-0.502-4.41-1.507
		c-1.17-1.005-1.75-2.348-1.75-4.025c0-1.68,0.62-2.935,1.86-3.77c1.24-0.833,2.92-1.25,5.035-1.25h4.65v-0.643
		c0-2.265-1.26-3.398-3.785-3.398c-1.58,0-3.225,0.578-4.94,1.73l-1.6-2.245c2.07-1.645,4.425-2.467,7.055-2.467
		c2.01,0,3.65,0.507,4.92,1.523c1.275,1.015,1.91,2.612,1.91,4.795V311.904z M200.358,305.554v-1.442h-4.04
		c-2.59,0-3.885,0.813-3.885,2.437c0,0.833,0.325,1.47,0.965,1.908c0.64,0.437,1.535,0.657,2.675,0.657c1.145,0,2.145-0.32,3-0.963
		C199.928,307.509,200.358,306.644,200.358,305.554z"/>
	<path style="fill:#E56353;" d="M224.728,294.841v14.883c0,3.015-0.815,5.275-2.45,6.782c-1.635,1.507-3.74,2.26-6.305,2.26
		c-2.565,0-4.885-0.8-6.96-2.405l1.7-2.725c1.67,1.26,3.355,1.892,5.055,1.892c1.7,0,3.045-0.44,4.04-1.315
		c0.995-0.878,1.49-2.277,1.49-4.202v-2.18c-0.535,1.005-1.3,1.808-2.295,2.405c-0.99,0.598-2.11,0.897-3.35,0.897
		c-2.265,0-4.125-0.79-5.58-2.372c-1.455-1.583-2.18-3.55-2.18-5.903c0-2.35,0.725-4.317,2.18-5.9
		c1.455-1.583,3.31-2.373,5.565-2.373c2.255,0,4.09,0.93,5.5,2.79v-2.535H224.728z M211.418,302.716c0,1.4,0.435,2.608,1.3,3.622
		c0.865,1.018,2.03,1.525,3.495,1.525c1.465,0,2.655-0.493,3.56-1.478c0.91-0.983,1.365-2.205,1.365-3.67
		c0-1.465-0.46-2.705-1.38-3.722c-0.92-1.015-2.105-1.523-3.56-1.523c-1.455,0-2.615,0.525-3.48,1.572
		C211.853,300.091,211.418,301.317,211.418,302.716z"/>
	<path style="fill:#E56353;" d="M245.803,304.944h-13.375c0.085,1.24,0.65,2.24,1.7,3c1.045,0.757,2.245,1.138,3.59,1.138
		c2.14,0,3.765-0.673,4.875-2.02l2.055,2.245c-1.84,1.903-4.235,2.855-7.185,2.855c-2.395,0-4.43-0.797-6.11-2.39
		c-1.68-1.592-2.52-3.73-2.52-6.415c0-2.682,0.855-4.815,2.57-6.397c1.71-1.583,3.725-2.373,6.045-2.373c2.32,0,4.29,0.7,5.915,2.1
		c1.625,1.4,2.44,3.33,2.44,5.787V304.944z M232.428,302.121h9.78c0-1.433-0.45-2.532-1.345-3.302c-0.9-0.77-2.005-1.155-3.32-1.155
		c-1.315,0-2.495,0.4-3.545,1.203C232.953,299.669,232.428,300.754,232.428,302.121z"/>
	<path style="fill:#E56353;" d="M275.853,289.486h3.785v22.417h-4.105l-12.7-16.357v16.357h-3.785v-22.417h3.785l13.02,16.74
		V289.486z"/>
	<path style="fill:#E56353;" d="M299.618,309.612c-1.71,1.7-3.85,2.55-6.415,2.55s-4.705-0.85-6.415-2.55
		c-1.71-1.7-2.565-3.78-2.565-6.238c0-2.46,0.855-4.54,2.565-6.24c1.71-1.698,3.85-2.548,6.415-2.548s4.705,0.85,6.415,2.548
		c1.71,1.7,2.565,3.78,2.565,6.24C302.183,305.831,301.328,307.912,299.618,309.612z M289.338,307.399
		c1.015,1.037,2.305,1.555,3.865,1.555s2.85-0.518,3.865-1.555c1.015-1.038,1.525-2.38,1.525-4.025c0-1.648-0.51-2.988-1.525-4.025
		c-1.015-1.037-2.305-1.557-3.865-1.557s-2.85,0.52-3.865,1.557c-1.015,1.037-1.525,2.377-1.525,4.025
		C287.813,305.019,288.323,306.361,289.338,307.399z"/>
	<path style="fill:#E56353;" d="M310.428,297.729v8.657c0,0.815,0.21,1.46,0.64,1.943c0.43,0.48,1.025,0.72,1.795,0.72
		c0.77,0,1.51-0.372,2.215-1.122l1.475,2.535c-1.265,1.133-2.66,1.7-4.185,1.7c-1.53,0-2.835-0.53-3.915-1.587
		c-1.08-1.06-1.62-2.488-1.62-4.283v-8.562h-2.145v-2.888h2.145v-5.355h3.595v5.355h4.49v2.888H310.428z"/>
	<path style="fill:#E56353;" d="M201.253,331.499v6.157h9.945v3.495h-9.945v9.237h-3.785v-22.417h14.945l-0.03,3.528H201.253z"/>
	<path style="fill:#E56353;" d="M230.118,348.097c-1.71,1.7-3.85,2.55-6.415,2.55c-2.565,0-4.705-0.85-6.415-2.55
		c-1.71-1.7-2.565-3.78-2.565-6.238c0-2.46,0.855-4.54,2.565-6.24c1.71-1.698,3.85-2.548,6.415-2.548
		c2.565,0,4.705,0.85,6.415,2.548c1.71,1.7,2.565,3.78,2.565,6.24C232.683,344.316,231.828,346.397,230.118,348.097z
		 M219.838,345.884c1.015,1.037,2.305,1.555,3.865,1.555c1.56,0,2.85-0.518,3.865-1.555c1.015-1.038,1.525-2.38,1.525-4.025
		c0-1.648-0.51-2.988-1.525-4.025c-1.015-1.037-2.305-1.557-3.865-1.557c-1.56,0-2.85,0.52-3.865,1.557
		c-1.015,1.037-1.525,2.377-1.525,4.025C218.313,343.504,218.823,344.846,219.838,345.884z"/>
	<path style="fill:#E56353;" d="M248.688,342.564v-9.237h3.59v17.062h-3.59v-3.11c-0.58,1.048-1.375,1.87-2.39,2.468
		c-1.015,0.6-2.115,0.9-3.29,0.9c-1.925,0-3.48-0.587-4.665-1.765c-1.185-1.175-1.78-2.875-1.78-5.1v-10.455h3.59v9.365
		c0,3.143,1.305,4.715,3.915,4.715c1.24,0,2.32-0.412,3.24-1.235C248.228,345.349,248.688,344.146,248.688,342.564z"/>
	<path style="fill:#E56353;" d="M261.068,341.151v9.237h-3.59v-17.062h3.59v3.112c0.575-1.048,1.375-1.872,2.39-2.47
		c1.015-0.6,2.11-0.898,3.285-0.898c1.925,0,3.48,0.588,4.67,1.763c1.185,1.177,1.78,2.875,1.78,5.1v10.455h-3.595v-9.365
		c0-3.142-1.305-4.715-3.91-4.715c-1.24,0-2.32,0.413-3.24,1.235C261.528,338.366,261.068,339.571,261.068,341.151z"/>
	<path style="fill:#E56353;" d="M279.508,348.209c-1.605-1.625-2.41-3.763-2.41-6.415c0-2.65,0.825-4.767,2.47-6.35
		c1.65-1.583,3.61-2.373,5.885-2.373c2.28,0,4.11,0.96,5.5,2.885v-9.365h3.595v23.797h-3.595v-2.565
		c-1.325,1.88-3.26,2.822-5.805,2.822C282.988,350.646,281.108,349.834,279.508,348.209z M280.693,341.939
		c0,1.635,0.525,2.966,1.57,3.993c1.05,1.025,2.28,1.54,3.69,1.54s2.605-0.52,3.59-1.558c0.985-1.035,1.475-2.367,1.475-3.993
		c0-1.625-0.49-2.982-1.475-4.072c-0.985-1.09-2.19-1.635-3.625-1.635c-1.43,0-2.66,0.545-3.685,1.635
		C281.208,338.939,280.693,340.301,280.693,341.939z"/>
</g>
<g>
</g>
<g>
</g>
<g>
</g>
<g>
</g>
<g>
</g>
<g>
</g>
<g>
</g>
<g>
</g>
<g>
</g>
<g>
</g>
<g>
</g>
<g>
</g>
<g>
</g>
<g>
</g>
<g>
</g>
</svg>
