<svg viewBox="0 0 300 90" height="100%">
    <g featurekey="symbol1" transform="matrix(0.875,0,0,0.875,1.25,1.25)">
        <path xmlns="http://www.w3.org/2000/svg"
              d="M35,65.833c0-8.587,3.535-16.36,9.219-21.956c-3.063-1.406-6.458-2.21-10.052-2.21C20.82,41.667,10,52.487,10,65.833  C10,79.18,20.82,90,34.167,90c3.594,0,6.988-0.804,10.052-2.21C38.535,82.194,35,74.421,35,65.833z"/>
        <path xmlns="http://www.w3.org/2000/svg"
              d="M65.833,65c-8.587,0-16.36-3.535-21.956-9.222c-1.406,3.066-2.21,6.461-2.21,10.055C41.667,79.18,52.487,90,65.833,90  C79.18,90,90,79.18,90,65.833c0-3.594-0.804-6.988-2.21-10.055C82.194,61.465,74.421,65,65.833,65z"/>
        <path xmlns="http://www.w3.org/2000/svg"
              d="M65.833,10c-3.594,0-6.988,0.804-10.055,2.21C61.465,17.806,65,25.579,65,34.167c0,8.587-3.535,16.36-9.222,21.956  c3.066,1.406,6.461,2.21,10.055,2.21C79.18,58.333,90,47.513,90,34.167C90,20.82,79.18,10,65.833,10z"/>
        <path xmlns="http://www.w3.org/2000/svg"
              d="M34.167,35c8.587,0,16.36,3.535,21.956,9.219c1.406-3.063,2.21-6.458,2.21-10.052C58.333,20.82,47.513,10,34.167,10  C20.82,10,10,20.82,10,34.167c0,3.594,0.804,6.988,2.21,10.052C17.806,38.535,25.579,35,34.167,35z"/>
    </g>
    <g featurekey="text1"
       transform="matrix(3.1111802585202826,0,0,3.1111802585202826,97.69772806255082, 4)">
        <path d="M13 20 l-2.88 0 l2 -9.46 l-3.8 9.46 l-2.74 0 l0 -8.54 l-2.64 8.54 l-1.6 0 l4.48 -13.74 c-2 0.64 -3.22 2.22 -3.22 4.52 c0 1.02 0.26 1.18 0.28 1.36 c-1.38 0 -2.14 -0.5 -2.14 -1.94 c0 -2.44 3.38 -5.12 6.5 -5.12 c0.46 0 0.94 0.06 1.38 0.2 l0 11.52 l4.38 -11.52 l3.14 0 z M22.04 10 l2.88 0 l-1.44 6.8 c-0.04 0.22 -0.08 0.44 -0.08 0.62 c0 0.44 0.2 0.76 1 0.76 s1.84 -1.12 2.64 -1.76 l0.68 0 c-0.92 0.92 -3.18 3.58 -4.74 3.58 c-1.3 0 -2.18 -0.48 -2.44 -1.52 c-0.6 0.82 -1.5 1.64 -2.72 1.64 c-1.92 0 -2.48 -1.36 -2.48 -2.54 c0 -3.44 1.24 -7.56 5.24 -7.56 c0.48 0 0.98 0.2 1.34 0.5 z M20.740000000000002 11.14 c-1.5 0 -2.7 3.18 -2.7 5.9 c0 1.2 0.66 1.42 1.16 1.42 c0.46 0 0.9 -0.44 1.28 -1 c0.02 -0.2 0.06 -0.42 0.12 -0.66 l1.12 -5.3 c-0.32 -0.28 -0.7 -0.36 -0.98 -0.36 z M27.020000000000003 10 l2.88 0 l-0.08 0.38 c0.42 -0.22 0.9 -0.36 1.4 -0.36 c2.08 0 3.06 0.74 3.06 2.8 c0 0.42 -0.04 0.88 -0.12 1.4 c-0.62 4.3 -2.34 5.76 -4.38 5.76 c-0.66 0 -1.28 -0.22 -1.88 -0.6 l-1.04 4.9 l-3.02 0.72 z M29.46 18.5 c1 0 1.48 -0.86 2.14 -4.04 c0.18 -0.88 0.26 -1.54 0.26 -2.02 c0 -1.2 -0.48 -1.44 -1.12 -1.44 c-0.38 0 -0.76 0.16 -1.14 0.42 l-1.44 6.72 c0.48 0.36 0.98 0.36 1.3 0.36 z M37.72 10.2 l2.9 -0.6 l0 0.28 c0 3.3 1.36 4.3 1.36 6.64 c0 0.14 0 0.28 -0.02 0.42 c0.56 -0.5 1.06 -1.02 1.3 -1.3 l0.52 0.68 c-0.56 0.44 -1.36 1.14 -2.16 1.82 c-0.52 1.1 -1.66 1.86 -3.52 1.86 c-2.3 0 -3.42 -0.66 -3.42 -2.62 c0 -1.6 0.72 -2.52 1.52 -2.58 c0.72 -1.3 1.18 -3.08 1.52 -4.6 z M37.74 16.02 c0 0.76 -0.62 1.28 -1.32 1.28 c-0.24 0 -0.48 -0.06 -0.72 -0.18 c0 1.18 0.64 1.7 1.7 1.7 c0.68 0 1.66 -0.84 1.66 -2.38 c0 -1.24 -0.9 -2.3 -0.94 -4.8 c-0.32 0.98 -0.6 2.26 -1.04 3.26 c0.48 0.16 0.66 0.52 0.66 1.12 z M49.6 10 l2.88 0 l-1.44 6.8 c-0.04 0.22 -0.08 0.44 -0.08 0.62 c0 0.44 0.2 0.76 1 0.76 s1.84 -1.12 2.64 -1.76 l0.68 0 c-0.92 0.92 -3.18 3.58 -4.74 3.58 c-1.36 0 -2.28 -0.52 -2.46 -1.68 c-0.94 0.88 -2.02 1.68 -2.88 1.68 c-1.54 0 -2.5 -0.68 -2.5 -2.18 c0 -0.3 0.04 -0.64 0.12 -1.02 l1.44 -6.8 l2.88 0 l-1.44 6.8 c-0.04 0.22 -0.08 0.44 -0.08 0.62 c0 0.44 0.2 0.76 1 0.76 c0.42 0 0.92 -0.32 1.42 -0.72 c0.02 -0.2 0.06 -0.42 0.12 -0.66 z M62.300000000000004 12.98 l-0.82 3.82 c-0.06 0.22 -0.1 0.44 -0.1 0.64 c0 0.44 0.22 0.74 1 0.74 c0.8 0 1.1 -0.62 1.9 -1.26 l0.68 0 c-0.92 0.92 -2.44 3.08 -4 3.08 s-2.48 -0.68 -2.48 -2.18 c0 -0.32 0.04 -0.64 0.12 -1.02 l0.76 -3.6 c0.04 -0.18 0.06 -0.36 0.06 -0.52 c0 -0.72 -0.38 -1.18 -0.92 -1.18 c-0.48 0 -0.84 0.14 -1.26 0.42 l-1.7 8.08 l-2.88 0 l2.12 -10 l2.88 0 l-0.24 1.08 c0.82 -0.6 1.74 -1.08 2.62 -1.08 c1.08 0 2.3 1.16 2.3 2.5 c0 0.16 0 0.32 -0.04 0.48 z"/>
    </g>
</svg>
